<svg width="1457" height="1048" viewBox="0 0 1457 1048" fill="none" xmlns="http://www.w3.org/2000/svg">
<path d="M1378.12 49.7389C1392.66 48.5756 1410.79 33.7987 1410.79 33.7987L1454.95 33.9027C1454.95 33.9027 1454.68 752.445 1454.73 856.779C1454.76 857.186 1454.77 857.594 1454.77 858.005C1454.75 874.243 1454.73 872.356 1454.73 856.779C1445.49 733.41 12.0087 795.408 14.1008 773C16.1997 750.518 2.99965 19.8565 2.99965 19.8565C2.99965 19.8565 36.1711 95.2113 78.2314 95.5731C120.517 95.9367 101.604 16.2529 143.693 19.8565C176.7 22.6825 168.257 71.1126 201.156 74.7872C225.535 77.5102 236.527 61.7095 259.762 54.693C284.546 47.2088 301.016 48.8472 324.12 37.9844C346.415 27.5015 348.831 2.05855 374.125 1.8529C392.566 1.70295 397.883 20.0362 416.318 20.4983C435.764 20.9858 442.032 1.63545 461.48 2.05855C490.906 2.69875 489.41 36.7697 516.085 47.7095C561.729 66.4283 596.087 17.8004 643.797 31.993C675.337 41.3754 679.788 72.2142 712.806 75.9917C739.413 79.0358 752.298 58.7417 779.081 60.1306C806.603 61.5579 816.797 85.5488 844.3 83.8883C856.732 83.1377 862.614 77.2294 875.037 76.3737C892.554 75.167 901.619 84.7017 919.175 84.0646C963.398 82.4596 963.817 16.434 1007.64 21.8904C1033.38 25.0949 1037.52 50.7733 1063.24 54.0556C1102.06 59.008 1109.68 10.4502 1148.79 7.89156C1207.76 4.0338 1208 103.811 1265.7 92.4676C1302.96 85.1425 1298.79 31.2062 1336.88 33.6247C1354.46 34.7409 1360.57 51.1429 1378.12 49.7389Z" fill="#E06309"/>
<path d="M75 965.254C80.3333 983.56 93.4 1020.17 135 894.642C152.333 952.177 205.4 1021.74 247 965.254C288.6 908.765 328.333 941.717 343 965.254C359 986.175 396.6 1001.34 419 894.642C441.4 787.941 487.667 876.336 517 933.871C518.333 987.483 553.4 1068.82 611 965.254C668.6 861.691 667 875.028 671 894.642C663 918.179 690.2 965.254 767 965.254C836.398 965.254 843.522 909.733 837.364 873.946C836.532 870.303 835.742 866.733 835 863.26C835.9 866.536 836.707 870.129 837.364 873.946C855.969 955.351 896.371 1073.39 927 965.254C959 852.276 1001.67 871.105 1019 894.642L1103 1043.71C1124.33 1055.48 1167.8 1042.14 1171 894.642C1174.2 747.143 1231 859.337 1259 933.871C1257.67 973.099 1264.6 1039.79 1303 992.714C1341.4 945.639 1364.33 907.719 1371 894.642C1368.33 927.333 1371 992.714 1403 992.714C1435 992.714 1455 901.38 1455 819C891.473 518.036 574.527 375.964 11 75V904.449L75 965.254Z" fill="#E06309"/>
<path d="M837.364 873.946C843.522 909.733 836.398 965.254 767 965.254C690.2 965.254 663 918.179 671 894.642C667 875.028 668.6 861.691 611 965.254C553.4 1068.82 518.333 987.483 517 933.871C487.667 876.336 441.4 787.941 419 894.642C396.6 1001.34 359 986.175 343 965.254C328.333 941.717 288.6 908.765 247 965.254C205.4 1021.74 152.333 952.177 135 894.642C93.4 1020.17 80.3333 983.56 75 965.254L11 904.449V75C574.527 375.964 891.473 518.036 1455 819C1455 901.38 1435 992.714 1403 992.714C1371 992.714 1368.33 927.333 1371 894.642C1364.33 907.719 1341.4 945.639 1303 992.714C1264.6 1039.79 1257.67 973.099 1259 933.871C1231 859.337 1174.2 747.143 1171 894.642C1167.8 1042.14 1124.33 1055.48 1103 1043.71L1019 894.642C1001.67 871.105 959 852.276 927 965.254C896.371 1073.39 855.969 955.351 837.364 873.946ZM837.364 873.946C836.532 870.303 835.742 866.733 835 863.26C835.9 866.536 836.707 870.129 837.364 873.946Z" stroke="#E06309"/>
</svg>
