<svg width="1447" height="3646" viewBox="0 0 1447 3646" fill="none" xmlns="http://www.w3.org/2000/svg">
<path d="M1364.52 1719.58C1379.01 1718.51 1397.09 1704.78 1397.09 1704.78L1441.1 1704.88L1441.1 2470.68L3.00009 2470.68L4.86381 1691.24C4.86381 1691.24 26.88 1761.55 68.8056 1761.9C110.956 1762.24 92.0858 1688.19 134.042 1691.55C166.943 1694.18 158.538 1739.18 191.332 1742.61C215.634 1745.14 226.587 1730.46 249.746 1723.95C274.449 1717 290.867 1718.52 313.894 1708.43C336.116 1698.7 338.519 1675.06 363.732 1674.87C382.114 1674.73 387.417 1691.77 405.793 1692.2C425.177 1692.66 431.421 1674.68 450.807 1675.08C480.139 1675.68 478.655 1707.34 505.248 1717.51C550.75 1734.92 584.986 1689.74 632.547 1702.94C663.988 1711.66 668.431 1740.32 701.344 1743.84C727.867 1746.67 740.706 1727.81 767.404 1729.11C794.838 1730.44 805.005 1752.74 832.419 1751.2C844.811 1750.51 850.673 1745.02 863.056 1744.23C880.516 1743.11 889.555 1751.97 907.055 1751.38C951.136 1749.9 951.538 1688.55 995.226 1693.63C1020.88 1696.61 1025.01 1720.47 1050.65 1723.53C1089.35 1728.14 1096.93 1683.02 1135.92 1680.65C1194.7 1677.08 1194.95 1769.79 1252.47 1759.26C1289.61 1752.47 1285.44 1702.34 1323.41 1704.6C1340.93 1705.64 1347.02 1720.88 1364.52 1719.58Z" fill="#E06309"/>
<rect x="5" y="2467" width="1434" height="1179" fill="url(#paint0_linear_301_48)"/>
<path d="M66.7485 2614.84C72.0608 2633.29 85.0761 2670.2 126.513 2543.67C143.778 2601.66 196.636 2671.78 238.072 2614.84C279.509 2557.9 319.086 2591.11 333.695 2614.84C349.632 2635.93 387.085 2651.22 409.396 2543.67C431.708 2436.12 477.793 2525.21 507.011 2583.21C508.339 2637.25 543.268 2719.23 600.642 2614.84C658.015 2510.45 656.422 2523.9 660.406 2543.67C652.437 2567.39 679.531 2614.84 756.029 2614.84C825.154 2614.84 832.25 2558.88 826.116 2522.81C825.287 2519.13 824.501 2515.54 823.761 2512.03C824.657 2515.34 825.462 2518.96 826.116 2522.81C844.648 2604.86 884.891 2723.84 915.4 2614.84C947.274 2500.96 989.773 2519.94 1007.04 2543.67L1090.71 2693.92C1111.96 2705.78 1155.25 2692.34 1158.44 2543.67C1161.63 2395 1218.21 2508.08 1246.09 2583.21C1244.77 2622.75 1251.67 2689.97 1289.92 2642.52C1328.17 2595.07 1351.01 2556.85 1357.65 2543.67C1355 2576.62 1357.65 2642.52 1389.53 2642.52C1421.4 2642.52 1440.33 2522.91 1440.33 2439.87H3V2553.55L66.7485 2614.84Z" fill="#E06309"/>
<path d="M826.116 2522.81C832.25 2558.88 825.154 2614.84 756.029 2614.84C679.531 2614.84 652.437 2567.39 660.406 2543.67C656.422 2523.9 658.015 2510.45 600.642 2614.84C543.268 2719.23 508.339 2637.25 507.011 2583.21C477.793 2525.21 431.708 2436.12 409.396 2543.67C387.084 2651.22 349.632 2635.93 333.695 2614.84C319.086 2591.11 279.509 2557.9 238.072 2614.84C196.636 2671.78 143.778 2601.66 126.513 2543.67C85.0761 2670.2 72.0608 2633.29 66.7485 2614.84L3 2553.55V2439.87H1440.33C1440.33 2522.91 1421.4 2642.52 1389.53 2642.52C1357.65 2642.52 1355 2576.62 1357.65 2543.67C1351.01 2556.85 1328.17 2595.07 1289.92 2642.52C1251.67 2689.97 1244.77 2622.75 1246.1 2583.21C1218.21 2508.08 1161.63 2395 1158.44 2543.67C1155.25 2692.34 1111.96 2705.78 1090.71 2693.92L1007.04 2543.67C989.773 2519.94 947.274 2500.96 915.4 2614.84C884.891 2723.84 844.648 2604.86 826.116 2522.81ZM826.116 2522.81C825.287 2519.13 824.501 2515.54 823.761 2512.03C824.657 2515.34 825.462 2518.96 826.116 2522.81Z" stroke="#E06309"/>
<path d="M1367.89 45.7096C1382.44 44.6317 1400.59 30.9042 1400.59 30.9042L1444.78 31.0103L1444.78 796.805L1.0001 796.805L2.87118 17.3652C2.87118 17.3652 24.9742 87.6767 67.0653 88.0218C109.381 88.3688 90.4373 14.3188 132.559 17.6765C165.59 20.3096 157.151 65.3114 190.075 68.733C214.473 71.2686 225.47 56.5882 248.72 50.0731C273.52 43.1237 290.003 44.6499 313.121 34.5606C335.43 24.8242 337.842 1.18183 363.155 0.996195C381.61 0.860868 386.934 17.8981 405.382 18.3314C424.843 18.7886 431.111 0.808678 450.574 1.20605C480.022 1.80726 478.532 33.4672 505.229 43.6387C550.911 61.043 585.282 15.8629 633.031 29.0617C664.596 37.7869 669.057 66.4448 702.1 69.9621C728.727 72.7965 741.617 53.9411 768.42 55.2375C795.962 56.5697 806.169 78.8654 833.692 77.3283C846.132 76.6335 852.017 71.1444 864.449 70.3519C881.979 69.2344 891.053 78.0965 908.622 77.5082C952.877 76.0263 953.281 14.6723 997.141 19.752C1022.9 22.7353 1027.04 46.5978 1052.79 49.6533C1091.63 54.2636 1099.25 9.14306 1138.39 6.77387C1197.4 3.20172 1197.66 95.9196 1255.4 85.3909C1292.68 78.5922 1288.5 28.4711 1326.62 30.7267C1344.21 31.7676 1350.33 47.0105 1367.89 45.7096Z" fill="#E06309"/>
<rect x="3" y="793" width="1440" height="1033" fill="url(#paint1_linear_301_48)"/>
<path d="M65 940.966C70.3333 959.418 83.4 996.322 125 869.793C142.333 927.785 195.4 997.903 237 940.966C278.6 884.028 318.333 917.241 333 940.966C349 962.054 386.6 977.343 409 869.793C431.4 762.244 477.667 851.341 507 909.333C508.333 963.372 543.4 1045.35 601 940.966C658.6 836.579 657 850.023 661 869.793C653 893.517 680.2 940.966 757 940.966C826.398 940.966 833.522 885.003 827.364 848.932C826.532 845.26 825.742 841.661 825 838.161C825.9 841.464 826.707 845.085 827.364 848.932C845.969 930.984 886.371 1049.96 917 940.966C949 827.09 991.667 846.069 1009 869.793L1093 1020.05C1114.33 1031.91 1157.8 1018.46 1161 869.793C1164.2 721.122 1221 834.207 1249 909.333C1247.67 948.874 1254.6 1016.09 1293 968.644C1331.4 921.195 1354.33 882.973 1361 869.793C1358.33 902.743 1361 968.644 1393 968.644C1425 968.644 1444 849.034 1444 766H1V879.678L65 940.966Z" fill="#E06309"/>
<path d="M827.364 848.932C833.522 885.003 826.398 940.966 757 940.966C680.2 940.966 653 893.517 661 869.793C657 850.023 658.6 836.579 601 940.966C543.4 1045.35 508.333 963.372 507 909.333C477.667 851.341 431.4 762.244 409 869.793C386.6 977.343 349 962.054 333 940.966C318.333 917.241 278.6 884.028 237 940.966C195.4 997.903 142.333 927.785 125 869.793C83.4 996.322 70.3333 959.418 65 940.966L1 879.678V766H1444C1444 849.034 1425 968.644 1393 968.644C1361 968.644 1358.33 902.743 1361 869.793C1354.33 882.973 1331.4 921.195 1293 968.644C1254.6 1016.09 1247.67 948.874 1249 909.333C1221 834.207 1164.2 721.122 1161 869.793C1157.8 1018.46 1114.33 1031.91 1093 1020.05L1009 869.793C991.667 846.069 949 827.09 917 940.966C886.371 1049.96 845.969 930.984 827.364 848.932ZM827.364 848.932C826.532 845.26 825.742 841.661 825 838.161C825.9 841.464 826.707 845.085 827.364 848.932Z" stroke="#E06309"/>
<defs>
<linearGradient id="paint0_linear_301_48" x1="722" y1="2467" x2="722" y2="3646" gradientUnits="userSpaceOnUse">
<stop stop-color="#E06309"/>
<stop offset="1" stop-color="#F4EFE9"/>
</linearGradient>
<linearGradient id="paint1_linear_301_48" x1="723" y1="793" x2="723" y2="1826" gradientUnits="userSpaceOnUse">
<stop stop-color="#E06309"/>
<stop offset="1" stop-color="#F4EFE9"/>
</linearGradient>
</defs>
</svg>
