<svg width="561" height="390" viewBox="0 0 561 390" fill="none" xmlns="http://www.w3.org/2000/svg">
<path d="M233.723 118.245C233.723 118.245 223.538 39.9334 351.839 48.8191C371.702 50.1861 325.009 48.4285 314.915 48.8191C293.857 49.6002 283.219 49.9908 274.753 52.7249C265.092 55.8495 258.471 61.1223 255.432 63.5635C251.85 66.3952 245.011 71.8633 240.018 81.0419C234.591 90.9041 234.048 99.985 233.506 107.406C233.18 111.8 233.289 115.511 233.506 118.147C234.265 112.972 237.088 91.0994 221.131 71.9609C204.741 52.3343 175.217 43.5462 145.91 49.6002V117.952H234.917H359.744" fill="black"/>
<path d="M233.723 118.245C233.723 118.245 223.538 39.9334 351.839 48.8191C371.702 50.1861 325.009 48.4285 314.915 48.8191C293.857 49.6002 283.219 49.9908 274.753 52.7249C265.092 55.8495 258.471 61.1223 255.432 63.5635C251.85 66.3952 245.011 71.8633 240.018 81.0419C234.591 90.9041 234.048 99.985 233.506 107.406C233.18 111.8 233.289 115.511 233.506 118.147C234.265 112.972 237.088 91.0994 221.131 71.9609C204.741 52.3343 175.217 43.5462 145.91 49.6002V117.952H234.917H359.744" stroke="black" stroke-miterlimit="10"/>
<path d="M238.991 85.0532C269.231 85.0532 325.731 85.0532 355.971 85.0532H238.991Z" fill="black"/>
<path d="M238.991 85.0532C269.231 85.0532 325.731 85.0532 355.971 85.0532" stroke="black" stroke-miterlimit="10"/>
<path d="M257.359 118.238L253.927 253.082" stroke="black" stroke-miterlimit="10"/>
<path d="M179.164 205.298C179.164 205.686 179.229 206.01 179.229 206.398C179.229 206.915 179.229 207.885 179.358 208.273L182.204 207.691C184.661 199.219 184.402 188.355 184.726 178.007C187.895 189.454 190.481 201.159 195.008 211.183C195.202 211.507 195.59 211.895 195.914 212.218C197.789 211.377 199.859 210.86 201.669 209.76C201.475 208.984 201.475 207.95 201.475 206.98C202.316 192.041 204.321 178.331 207.037 165.073L206.843 163.521C206.843 163.392 206.778 163.004 206.714 162.81C202.704 164.427 201.669 169.212 200.376 173.416C198.695 179.818 197.854 186.091 197.207 193.14C194.168 183.31 192.292 172.446 186.989 164.621C186.472 164.168 185.76 163.586 185.243 163.327C183.885 163.845 182.656 165.073 181.492 165.914C179.94 178.072 179.229 191.2 179.164 204.651V205.298Z" fill="black"/>
<path d="M315.657 172.303C318.786 172.303 321.561 176.258 322.21 186.118V187.771C322.092 194.738 318.491 206.015 311.583 206.015C305.915 206.015 304.439 200.642 304.439 194.915C304.439 182.635 310.579 172.303 315.657 172.303ZM296.646 195.033C297.059 203.594 300.011 210.325 308.336 210.679H308.572C312.764 210.679 316.778 206.428 318.963 204.834C323.627 199.461 326.52 191.845 326.52 182.458C326.461 174.901 325.753 167.107 318.845 166.044C307.745 169.292 300.66 177.616 297.413 188.716C296.941 190.782 296.646 192.908 296.646 195.033Z" fill="black"/>
<path d="M145.72 117.849L354.692 118.041" stroke="black" stroke-miterlimit="10"/>
<g filter="url(#filter0_d_231_578)">
<path d="M122.6 286L118.22 278.05H116.99V286H111.86V264.94H120.47C122.13 264.94 123.54 265.23 124.7 265.81C125.88 266.39 126.76 267.19 127.34 268.21C127.92 269.21 128.21 270.33 128.21 271.57C128.21 272.97 127.81 274.22 127.01 275.32C126.23 276.42 125.07 277.2 123.53 277.66L128.39 286H122.6ZM116.99 274.42H120.17C121.11 274.42 121.81 274.19 122.27 273.73C122.75 273.27 122.99 272.62 122.99 271.78C122.99 270.98 122.75 270.35 122.27 269.89C121.81 269.43 121.11 269.2 120.17 269.2H116.99V274.42ZM136.56 269.05V273.31H143.43V277.27H136.56V281.89H144.33V286H131.43V264.94H144.33V269.05H136.56ZM166.501 286H161.371L152.791 273.01V286H147.661V264.94H152.791L161.371 277.99V264.94H166.501V286ZM178.109 264.94C180.329 264.94 182.269 265.38 183.929 266.26C185.589 267.14 186.869 268.38 187.769 269.98C188.689 271.56 189.149 273.39 189.149 275.47C189.149 277.53 188.689 279.36 187.769 280.96C186.869 282.56 185.579 283.8 183.899 284.68C182.239 285.56 180.309 286 178.109 286H170.219V264.94H178.109ZM177.779 281.56C179.719 281.56 181.229 281.03 182.309 279.97C183.389 278.91 183.929 277.41 183.929 275.47C183.929 273.53 183.389 272.02 182.309 270.94C181.229 269.86 179.719 269.32 177.779 269.32H175.349V281.56H177.779ZM205.126 282.28H197.266L196.006 286H190.636L198.256 264.94H204.196L211.816 286H206.386L205.126 282.28ZM203.806 278.32L201.196 270.61L198.616 278.32H203.806ZM236.543 271.72C236.543 272.94 236.263 274.06 235.703 275.08C235.143 276.08 234.283 276.89 233.123 277.51C231.963 278.13 230.523 278.44 228.803 278.44H225.623V286H220.493V264.94H228.803C230.483 264.94 231.903 265.23 233.063 265.81C234.223 266.39 235.093 267.19 235.673 268.21C236.253 269.23 236.543 270.4 236.543 271.72ZM228.413 274.36C229.393 274.36 230.123 274.13 230.603 273.67C231.083 273.21 231.323 272.56 231.323 271.72C231.323 270.88 231.083 270.23 230.603 269.77C230.123 269.31 229.393 269.08 228.413 269.08H225.623V274.36H228.413ZM252.324 282.28H244.464L243.204 286H237.834L245.454 264.94H251.394L259.014 286H253.584L252.324 282.28ZM251.004 278.32L248.394 270.61L245.814 278.32H251.004ZM272.073 286L267.693 278.05H266.463V286H261.333V264.94H269.943C271.603 264.94 273.013 265.23 274.173 265.81C275.353 266.39 276.233 267.19 276.813 268.21C277.393 269.21 277.683 270.33 277.683 271.57C277.683 272.97 277.283 274.22 276.483 275.32C275.703 276.42 274.543 277.2 273.003 277.66L277.863 286H272.073ZM266.463 274.42H269.643C270.583 274.42 271.283 274.19 271.743 273.73C272.223 273.27 272.463 272.62 272.463 271.78C272.463 270.98 272.223 270.35 271.743 269.89C271.283 269.43 270.583 269.2 269.643 269.2H266.463V274.42ZM294.013 282.28H286.153L284.893 286H279.523L287.143 264.94H293.083L300.703 286H295.273L294.013 282.28ZM292.693 278.32L290.083 270.61L287.503 278.32H292.693ZM324.53 264.94V269.05H318.95V286H313.82V269.05H308.24V264.94H324.53ZM337.064 286.21C335.084 286.21 333.264 285.75 331.604 284.83C329.964 283.91 328.654 282.63 327.674 280.99C326.714 279.33 326.234 277.47 326.234 275.41C326.234 273.35 326.714 271.5 327.674 269.86C328.654 268.22 329.964 266.94 331.604 266.02C333.264 265.1 335.084 264.64 337.064 264.64C339.044 264.64 340.854 265.1 342.494 266.02C344.154 266.94 345.454 268.22 346.394 269.86C347.354 271.5 347.834 273.35 347.834 275.41C347.834 277.47 347.354 279.33 346.394 280.99C345.434 282.63 344.134 283.91 342.494 284.83C340.854 285.75 339.044 286.21 337.064 286.21ZM337.064 281.53C338.744 281.53 340.084 280.97 341.084 279.85C342.104 278.73 342.614 277.25 342.614 275.41C342.614 273.55 342.104 272.07 341.084 270.97C340.084 269.85 338.744 269.29 337.064 269.29C335.364 269.29 334.004 269.84 332.984 270.94C331.984 272.04 331.484 273.53 331.484 275.41C331.484 277.27 331.984 278.76 332.984 279.88C334.004 280.98 335.364 281.53 337.064 281.53ZM358.578 264.94C360.798 264.94 362.738 265.38 364.398 266.26C366.058 267.14 367.338 268.38 368.238 269.98C369.158 271.56 369.618 273.39 369.618 275.47C369.618 277.53 369.158 279.36 368.238 280.96C367.338 282.56 366.048 283.8 364.368 284.68C362.708 285.56 360.778 286 358.578 286H350.688V264.94H358.578ZM358.248 281.56C360.188 281.56 361.698 281.03 362.778 279.97C363.858 278.91 364.398 277.41 364.398 275.47C364.398 273.53 363.858 272.02 362.778 270.94C361.698 269.86 360.188 269.32 358.248 269.32H355.818V281.56H358.248ZM377.615 269.05V273.31H384.485V277.27H377.615V281.89H385.385V286H372.485V264.94H385.385V269.05H377.615ZM396.335 286.21C394.795 286.21 393.415 285.96 392.195 285.46C390.975 284.96 389.995 284.22 389.255 283.24C388.535 282.26 388.155 281.08 388.115 279.7H393.575C393.655 280.48 393.925 281.08 394.385 281.5C394.845 281.9 395.445 282.1 396.185 282.1C396.945 282.1 397.545 281.93 397.985 281.59C398.425 281.23 398.645 280.74 398.645 280.12C398.645 279.6 398.465 279.17 398.105 278.83C397.765 278.49 397.335 278.21 396.815 277.99C396.315 277.77 395.595 277.52 394.655 277.24C393.295 276.82 392.185 276.4 391.325 275.98C390.465 275.56 389.725 274.94 389.105 274.12C388.485 273.3 388.175 272.23 388.175 270.91C388.175 268.95 388.885 267.42 390.305 266.32C391.725 265.2 393.575 264.64 395.855 264.64C398.175 264.64 400.045 265.2 401.465 266.32C402.885 267.42 403.645 268.96 403.745 270.94H398.195C398.155 270.26 397.905 269.73 397.445 269.35C396.985 268.95 396.395 268.75 395.675 268.75C395.055 268.75 394.555 268.92 394.175 269.26C393.795 269.58 393.605 270.05 393.605 270.67C393.605 271.35 393.925 271.88 394.565 272.26C395.205 272.64 396.205 273.05 397.565 273.49C398.925 273.95 400.025 274.39 400.865 274.81C401.725 275.23 402.465 275.84 403.085 276.64C403.705 277.44 404.015 278.47 404.015 279.73C404.015 280.93 403.705 282.02 403.085 283C402.485 283.98 401.605 284.76 400.445 285.34C399.285 285.92 397.915 286.21 396.335 286.21Z" fill="black"/>
<path d="M122.6 286L121.724 286.483L122.009 287H122.6V286ZM118.22 278.05L119.096 277.567L118.811 277.05H118.22V278.05ZM116.99 278.05V277.05H115.99V278.05H116.99ZM116.99 286V287H117.99V286H116.99ZM111.86 286H110.86V287H111.86V286ZM111.86 264.94V263.94H110.86V264.94H111.86ZM124.7 265.81L124.253 266.704L124.259 266.707L124.7 265.81ZM127.34 268.21L126.471 268.704L126.475 268.712L127.34 268.21ZM127.01 275.32L126.201 274.732L126.194 274.742L127.01 275.32ZM123.53 277.66L123.244 276.702L122.026 277.066L122.666 278.163L123.53 277.66ZM128.39 286V287H130.13L129.254 285.497L128.39 286ZM116.99 274.42H115.99V275.42H116.99V274.42ZM122.27 273.73L121.578 273.008L121.57 273.015L121.563 273.023L122.27 273.73ZM122.27 269.89L121.563 270.597L121.57 270.605L121.578 270.612L122.27 269.89ZM116.99 269.2V268.2H115.99V269.2H116.99ZM123.476 285.517L119.096 277.567L117.344 278.533L121.724 286.483L123.476 285.517ZM118.22 277.05H116.99V279.05H118.22V277.05ZM115.99 278.05V286H117.99V278.05H115.99ZM116.99 285H111.86V287H116.99V285ZM112.86 286V264.94H110.86V286H112.86ZM111.86 265.94H120.47V263.94H111.86V265.94ZM120.47 265.94C122.017 265.94 123.265 266.211 124.253 266.704L125.147 264.916C123.815 264.249 122.243 263.94 120.47 263.94V265.94ZM124.259 266.707C125.281 267.21 126.002 267.879 126.471 268.704L128.209 267.716C127.518 266.501 126.479 265.57 125.141 264.913L124.259 266.707ZM126.475 268.712C126.96 269.548 127.21 270.493 127.21 271.57H129.21C129.21 270.167 128.88 268.872 128.205 267.708L126.475 268.712ZM127.21 271.57C127.21 272.765 126.873 273.808 126.201 274.732L127.819 275.908C128.747 274.632 129.21 273.175 129.21 271.57H127.21ZM126.194 274.742C125.567 275.626 124.612 276.293 123.244 276.702L123.816 278.618C125.528 278.107 126.893 277.214 127.826 275.898L126.194 274.742ZM122.666 278.163L127.526 286.503L129.254 285.497L124.394 277.157L122.666 278.163ZM128.39 285H122.6V287H128.39V285ZM116.99 275.42H120.17V273.42H116.99V275.42ZM120.17 275.42C121.257 275.42 122.26 275.154 122.977 274.437L121.563 273.023C121.36 273.226 120.963 273.42 120.17 273.42V275.42ZM122.962 274.452C123.688 273.757 123.99 272.816 123.99 271.78H121.99C121.99 272.424 121.812 272.783 121.578 273.008L122.962 274.452ZM123.99 271.78C123.99 270.767 123.678 269.854 122.962 269.168L121.578 270.612C121.822 270.846 121.99 271.193 121.99 271.78H123.99ZM122.977 269.183C122.26 268.466 121.257 268.2 120.17 268.2V270.2C120.963 270.2 121.36 270.394 121.563 270.597L122.977 269.183ZM120.17 268.2H116.99V270.2H120.17V268.2ZM115.99 269.2V274.42H117.99V269.2H115.99ZM136.56 269.05V268.05H135.56V269.05H136.56ZM136.56 273.31H135.56V274.31H136.56V273.31ZM143.43 273.31H144.43V272.31H143.43V273.31ZM143.43 277.27V278.27H144.43V277.27H143.43ZM136.56 277.27V276.27H135.56V277.27H136.56ZM136.56 281.89H135.56V282.89H136.56V281.89ZM144.33 281.89H145.33V280.89H144.33V281.89ZM144.33 286V287H145.33V286H144.33ZM131.43 286H130.43V287H131.43V286ZM131.43 264.94V263.94H130.43V264.94H131.43ZM144.33 264.94H145.33V263.94H144.33V264.94ZM144.33 269.05V270.05H145.33V269.05H144.33ZM135.56 269.05V273.31H137.56V269.05H135.56ZM136.56 274.31H143.43V272.31H136.56V274.31ZM142.43 273.31V277.27H144.43V273.31H142.43ZM143.43 276.27H136.56V278.27H143.43V276.27ZM135.56 277.27V281.89H137.56V277.27H135.56ZM136.56 282.89H144.33V280.89H136.56V282.89ZM143.33 281.89V286H145.33V281.89H143.33ZM144.33 285H131.43V287H144.33V285ZM132.43 286V264.94H130.43V286H132.43ZM131.43 265.94H144.33V263.94H131.43V265.94ZM143.33 264.94V269.05H145.33V264.94H143.33ZM144.33 268.05H136.56V270.05H144.33V268.05ZM166.501 286V287H167.501V286H166.501ZM161.371 286L160.536 286.551L160.833 287H161.371V286ZM152.791 273.01L153.625 272.459L151.791 269.682V273.01H152.791ZM152.791 286V287H153.791V286H152.791ZM147.661 286H146.661V287H147.661V286ZM147.661 264.94V263.94H146.661V264.94H147.661ZM152.791 264.94L153.626 264.391L153.33 263.94H152.791V264.94ZM161.371 277.99L160.535 278.539L162.371 281.331V277.99H161.371ZM161.371 264.94V263.94H160.371V264.94H161.371ZM166.501 264.94H167.501V263.94H166.501V264.94ZM166.501 285H161.371V287H166.501V285ZM162.205 285.449L153.625 272.459L151.956 273.561L160.536 286.551L162.205 285.449ZM151.791 273.01V286H153.791V273.01H151.791ZM152.791 285H147.661V287H152.791V285ZM148.661 286V264.94H146.661V286H148.661ZM147.661 265.94H152.791V263.94H147.661V265.94ZM151.955 265.489L160.535 278.539L162.206 277.441L153.626 264.391L151.955 265.489ZM162.371 277.99V264.94H160.371V277.99H162.371ZM161.371 265.94H166.501V263.94H161.371V265.94ZM165.501 264.94V286H167.501V264.94H165.501ZM183.929 266.26L184.398 265.376L183.929 266.26ZM187.769 269.98L186.898 270.47L186.901 270.477L186.905 270.483L187.769 269.98ZM187.769 280.96L186.902 280.462L186.898 280.47L187.769 280.96ZM183.899 284.68L183.435 283.794L183.431 283.796L183.899 284.68ZM170.219 286H169.219V287H170.219V286ZM170.219 264.94V263.94H169.219V264.94H170.219ZM175.349 269.32V268.32H174.349V269.32H175.349ZM175.349 281.56H174.349V282.56H175.349V281.56ZM178.109 265.94C180.196 265.94 181.969 266.353 183.461 267.144L184.398 265.376C182.569 264.407 180.463 263.94 178.109 263.94V265.94ZM183.461 267.144C184.956 267.936 186.094 269.041 186.898 270.47L188.641 269.49C187.645 267.719 186.223 266.344 184.398 265.376L183.461 267.144ZM186.905 270.483C187.725 271.89 188.149 273.542 188.149 275.47H190.149C190.149 273.238 189.654 271.23 188.634 269.477L186.905 270.483ZM188.149 275.47C188.149 277.376 187.725 279.03 186.902 280.462L188.636 281.458C189.653 279.69 190.149 277.684 190.149 275.47H188.149ZM186.898 280.47C186.096 281.895 184.95 283.001 183.435 283.794L184.363 285.566C186.209 284.599 187.643 283.225 188.641 281.45L186.898 280.47ZM183.431 283.796C181.938 284.588 180.174 285 178.109 285V287C180.445 287 182.541 286.532 184.368 285.564L183.431 283.796ZM178.109 285H170.219V287H178.109V285ZM171.219 286V264.94H169.219V286H171.219ZM170.219 265.94H178.109V263.94H170.219V265.94ZM177.779 282.56C179.904 282.56 181.694 281.975 183.01 280.684L181.609 279.256C180.765 280.085 179.535 280.56 177.779 280.56V282.56ZM183.01 280.684C184.332 279.386 184.929 277.599 184.929 275.47H182.929C182.929 277.221 182.447 278.434 181.609 279.256L183.01 280.684ZM184.929 275.47C184.929 273.34 184.331 271.548 183.016 270.233L181.602 271.647C182.447 272.492 182.929 273.72 182.929 275.47H184.929ZM183.016 270.233C181.702 268.918 179.909 268.32 177.779 268.32V270.32C179.529 270.32 180.757 270.802 181.602 271.647L183.016 270.233ZM177.779 268.32H175.349V270.32H177.779V268.32ZM174.349 269.32V281.56H176.349V269.32H174.349ZM175.349 282.56H177.779V280.56H175.349V282.56ZM205.126 282.28L206.073 281.959L205.843 281.28H205.126V282.28ZM197.266 282.28V281.28H196.549L196.319 281.959L197.266 282.28ZM196.006 286V287H196.723L196.953 286.321L196.006 286ZM190.636 286L189.696 285.66L189.211 287H190.636V286ZM198.256 264.94V263.94H197.555L197.316 264.6L198.256 264.94ZM204.196 264.94L205.137 264.6L204.898 263.94H204.196V264.94ZM211.816 286V287H213.242L212.757 285.66L211.816 286ZM206.386 286L205.439 286.321L205.669 287H206.386V286ZM203.806 278.32V279.32H205.201L204.753 277.999L203.806 278.32ZM201.196 270.61L202.143 270.289L201.191 267.475L200.248 270.293L201.196 270.61ZM198.616 278.32L197.668 278.003L197.227 279.32H198.616V278.32ZM205.126 281.28H197.266V283.28H205.126V281.28ZM196.319 281.959L195.059 285.679L196.953 286.321L198.213 282.601L196.319 281.959ZM196.006 285H190.636V287H196.006V285ZM191.577 286.34L199.197 265.28L197.316 264.6L189.696 285.66L191.577 286.34ZM198.256 265.94H204.196V263.94H198.256V265.94ZM203.256 265.28L210.876 286.34L212.757 285.66L205.137 264.6L203.256 265.28ZM211.816 285H206.386V287H211.816V285ZM207.333 285.679L206.073 281.959L204.179 282.601L205.439 286.321L207.333 285.679ZM204.753 277.999L202.143 270.289L200.249 270.931L202.859 278.641L204.753 277.999ZM200.248 270.293L197.668 278.003L199.565 278.637L202.145 270.927L200.248 270.293ZM198.616 279.32H203.806V277.32H198.616V279.32ZM235.703 275.08L236.575 275.569L236.579 275.561L235.703 275.08ZM233.123 277.51L232.651 276.628L233.123 277.51ZM225.623 278.44V277.44H224.623V278.44H225.623ZM225.623 286V287H226.623V286H225.623ZM220.493 286H219.493V287H220.493V286ZM220.493 264.94V263.94H219.493V264.94H220.493ZM233.063 265.81L233.51 264.916L233.063 265.81ZM230.603 269.77L229.911 270.492L230.603 269.77ZM225.623 269.08V268.08H224.623V269.08H225.623ZM225.623 274.36H224.623V275.36H225.623V274.36ZM235.543 271.72C235.543 272.78 235.301 273.733 234.826 274.599L236.579 275.561C237.224 274.387 237.543 273.1 237.543 271.72H235.543ZM234.83 274.591C234.377 275.401 233.668 276.085 232.651 276.628L233.594 278.392C234.897 277.695 235.909 276.759 236.575 275.569L234.83 274.591ZM232.651 276.628C231.674 277.15 230.407 277.44 228.803 277.44V279.44C230.638 279.44 232.251 279.11 233.594 278.392L232.651 276.628ZM228.803 277.44H225.623V279.44H228.803V277.44ZM224.623 278.44V286H226.623V278.44H224.623ZM225.623 285H220.493V287H225.623V285ZM221.493 286V264.94H219.493V286H221.493ZM220.493 265.94H228.803V263.94H220.493V265.94ZM228.803 265.94C230.372 265.94 231.629 266.211 232.616 266.704L233.51 264.916C232.176 264.249 230.594 263.94 228.803 263.94V265.94ZM232.616 266.704C233.618 267.206 234.332 267.874 234.804 268.704L236.542 267.716C235.854 266.505 234.828 265.574 233.51 264.916L232.616 266.704ZM234.804 268.704C235.288 269.556 235.543 270.551 235.543 271.72H237.543C237.543 270.249 237.218 268.904 236.542 267.716L234.804 268.704ZM228.413 275.36C229.53 275.36 230.557 275.099 231.295 274.392L229.911 272.948C229.689 273.161 229.256 273.36 228.413 273.36V275.36ZM231.295 274.392C232.02 273.697 232.323 272.756 232.323 271.72H230.323C230.323 272.364 230.145 272.723 229.911 272.948L231.295 274.392ZM232.323 271.72C232.323 270.684 232.02 269.743 231.295 269.048L229.911 270.492C230.145 270.717 230.323 271.076 230.323 271.72H232.323ZM231.295 269.048C230.557 268.341 229.53 268.08 228.413 268.08V270.08C229.256 270.08 229.689 270.279 229.911 270.492L231.295 269.048ZM228.413 268.08H225.623V270.08H228.413V268.08ZM224.623 269.08V274.36H226.623V269.08H224.623ZM225.623 275.36H228.413V273.36H225.623V275.36ZM252.324 282.28L253.271 281.959L253.041 281.28H252.324V282.28ZM244.464 282.28V281.28H243.746L243.516 281.959L244.464 282.28ZM243.204 286V287H243.921L244.151 286.321L243.204 286ZM237.834 286L236.893 285.66L236.408 287H237.834V286ZM245.454 264.94V263.94H244.752L244.513 264.6L245.454 264.94ZM251.394 264.94L252.334 264.6L252.095 263.94H251.394V264.94ZM259.014 286V287H260.439L259.954 285.66L259.014 286ZM253.584 286L252.636 286.321L252.866 287H253.584V286ZM251.004 278.32V279.32H252.398L251.951 277.999L251.004 278.32ZM248.394 270.61L249.341 270.289L248.388 267.475L247.445 270.293L248.394 270.61ZM245.814 278.32L244.865 278.003L244.424 279.32H245.814V278.32ZM252.324 281.28H244.464V283.28H252.324V281.28ZM243.516 281.959L242.256 285.679L244.151 286.321L245.411 282.601L243.516 281.959ZM243.204 285H237.834V287H243.204V285ZM238.774 286.34L246.394 265.28L244.513 264.6L236.893 285.66L238.774 286.34ZM245.454 265.94H251.394V263.94H245.454V265.94ZM250.453 265.28L258.073 286.34L259.954 285.66L252.334 264.6L250.453 265.28ZM259.014 285H253.584V287H259.014V285ZM254.531 285.679L253.271 281.959L251.376 282.601L252.636 286.321L254.531 285.679ZM251.951 277.999L249.341 270.289L247.446 270.931L250.056 278.641L251.951 277.999ZM247.445 270.293L244.865 278.003L246.762 278.637L249.342 270.927L247.445 270.293ZM245.814 279.32H251.004V277.32H245.814V279.32ZM272.073 286L271.197 286.483L271.482 287H272.073V286ZM267.693 278.05L268.569 277.567L268.283 277.05H267.693V278.05ZM266.463 278.05V277.05H265.463V278.05H266.463ZM266.463 286V287H267.463V286H266.463ZM261.333 286H260.333V287H261.333V286ZM261.333 264.94V263.94H260.333V264.94H261.333ZM274.173 265.81L273.725 266.704L273.732 266.707L274.173 265.81ZM276.813 268.21L275.943 268.704L275.948 268.712L276.813 268.21ZM276.483 275.32L275.674 274.732L275.667 274.742L276.483 275.32ZM273.003 277.66L272.716 276.702L271.499 277.066L272.139 278.163L273.003 277.66ZM277.863 286V287H279.603L278.727 285.497L277.863 286ZM266.463 274.42H265.463V275.42H266.463V274.42ZM271.743 273.73L271.051 273.008L271.043 273.015L271.036 273.023L271.743 273.73ZM271.743 269.89L271.036 270.597L271.043 270.605L271.051 270.612L271.743 269.89ZM266.463 269.2V268.2H265.463V269.2H266.463ZM272.949 285.517L268.569 277.567L266.817 278.533L271.197 286.483L272.949 285.517ZM267.693 277.05H266.463V279.05H267.693V277.05ZM265.463 278.05V286H267.463V278.05H265.463ZM266.463 285H261.333V287H266.463V285ZM262.333 286V264.94H260.333V286H262.333ZM261.333 265.94H269.943V263.94H261.333V265.94ZM269.943 265.94C271.49 265.94 272.738 266.211 273.725 266.704L274.62 264.916C273.288 264.249 271.716 263.94 269.943 263.94V265.94ZM273.732 266.707C274.754 267.21 275.474 267.879 275.943 268.704L277.682 267.716C276.991 266.501 275.951 265.57 274.614 264.913L273.732 266.707ZM275.948 268.712C276.433 269.548 276.683 270.493 276.683 271.57H278.683C278.683 270.167 278.353 268.872 277.678 267.708L275.948 268.712ZM276.683 271.57C276.683 272.765 276.346 273.808 275.674 274.732L277.291 275.908C278.22 274.632 278.683 273.175 278.683 271.57H276.683ZM275.667 274.742C275.04 275.626 274.085 276.293 272.716 276.702L273.289 278.618C275 278.107 276.366 277.214 277.298 275.898L275.667 274.742ZM272.139 278.163L276.999 286.503L278.727 285.497L273.867 277.157L272.139 278.163ZM277.863 285H272.073V287H277.863V285ZM266.463 275.42H269.643V273.42H266.463V275.42ZM269.643 275.42C270.73 275.42 271.732 275.154 272.45 274.437L271.036 273.023C270.833 273.226 270.436 273.42 269.643 273.42V275.42ZM272.435 274.452C273.16 273.757 273.463 272.816 273.463 271.78H271.463C271.463 272.424 271.285 272.783 271.051 273.008L272.435 274.452ZM273.463 271.78C273.463 270.767 273.151 269.854 272.435 269.168L271.051 270.612C271.295 270.846 271.463 271.193 271.463 271.78H273.463ZM272.45 269.183C271.732 268.466 270.73 268.2 269.643 268.2V270.2C270.436 270.2 270.833 270.394 271.036 270.597L272.45 269.183ZM269.643 268.2H266.463V270.2H269.643V268.2ZM265.463 269.2V274.42H267.463V269.2H265.463ZM294.013 282.28L294.96 281.959L294.73 281.28H294.013V282.28ZM286.153 282.28V281.28H285.436L285.206 281.959L286.153 282.28ZM284.893 286V287H285.61L285.84 286.321L284.893 286ZM279.523 286L278.583 285.66L278.098 287H279.523V286ZM287.143 264.94V263.94H286.441L286.203 264.6L287.143 264.94ZM293.083 264.94L294.023 264.6L293.785 263.94H293.083V264.94ZM300.703 286V287H302.128L301.643 285.66L300.703 286ZM295.273 286L294.326 286.321L294.556 287H295.273V286ZM292.693 278.32V279.32H294.087L293.64 277.999L292.693 278.32ZM290.083 270.61L291.03 270.289L290.077 267.475L289.135 270.293L290.083 270.61ZM287.503 278.32L286.555 278.003L286.114 279.32H287.503V278.32ZM294.013 281.28H286.153V283.28H294.013V281.28ZM285.206 281.959L283.946 285.679L285.84 286.321L287.1 282.601L285.206 281.959ZM284.893 285H279.523V287H284.893V285ZM280.463 286.34L288.083 265.28L286.203 264.6L278.583 285.66L280.463 286.34ZM287.143 265.94H293.083V263.94H287.143V265.94ZM292.143 265.28L299.763 286.34L301.643 285.66L294.023 264.6L292.143 265.28ZM300.703 285H295.273V287H300.703V285ZM296.22 285.679L294.96 281.959L293.066 282.601L294.326 286.321L296.22 285.679ZM293.64 277.999L291.03 270.289L289.136 270.931L291.746 278.641L293.64 277.999ZM289.135 270.293L286.555 278.003L288.451 278.637L291.031 270.927L289.135 270.293ZM287.503 279.32H292.693V277.32H287.503V279.32ZM324.53 264.94H325.53V263.94H324.53V264.94ZM324.53 269.05V270.05H325.53V269.05H324.53ZM318.95 269.05V268.05H317.95V269.05H318.95ZM318.95 286V287H319.95V286H318.95ZM313.82 286H312.82V287H313.82V286ZM313.82 269.05H314.82V268.05H313.82V269.05ZM308.24 269.05H307.24V270.05H308.24V269.05ZM308.24 264.94V263.94H307.24V264.94H308.24ZM323.53 264.94V269.05H325.53V264.94H323.53ZM324.53 268.05H318.95V270.05H324.53V268.05ZM317.95 269.05V286H319.95V269.05H317.95ZM318.95 285H313.82V287H318.95V285ZM314.82 286V269.05H312.82V286H314.82ZM313.82 268.05H308.24V270.05H313.82V268.05ZM309.24 269.05V264.94H307.24V269.05H309.24ZM308.24 265.94H324.53V263.94H308.24V265.94ZM331.604 284.83L331.115 285.702L331.119 285.705L331.604 284.83ZM327.674 280.99L326.808 281.491L326.812 281.497L326.816 281.503L327.674 280.99ZM327.674 269.86L326.816 269.347L326.811 269.355L327.674 269.86ZM331.604 266.02L331.119 265.145L331.115 265.148L331.604 266.02ZM342.494 266.02L342.005 266.892L342.009 266.895L342.494 266.02ZM346.394 269.86L345.527 270.357L345.531 270.365L346.394 269.86ZM346.394 280.99L347.257 281.495L347.26 281.491L346.394 280.99ZM342.494 284.83L342.983 285.702L342.494 284.83ZM341.084 279.85L340.345 279.177L340.338 279.184L341.084 279.85ZM341.084 270.97L340.338 271.636L340.344 271.643L340.351 271.65L341.084 270.97ZM332.984 270.94L332.251 270.26L332.244 270.267L332.984 270.94ZM332.984 279.88L332.238 280.546L332.244 280.553L332.251 280.56L332.984 279.88ZM337.064 285.21C335.246 285.21 333.594 284.79 332.089 283.955L331.119 285.705C332.934 286.71 334.922 287.21 337.064 287.21V285.21ZM332.093 283.958C330.608 283.125 329.424 281.97 328.533 280.477L326.816 281.503C327.884 283.29 329.32 284.695 331.115 285.702L332.093 283.958ZM328.54 280.489C327.674 278.993 327.234 277.308 327.234 275.41H325.234C325.234 277.632 325.754 279.667 326.808 281.491L328.54 280.489ZM327.234 275.41C327.234 273.512 327.674 271.839 328.537 270.365L326.811 269.355C325.754 271.161 325.234 273.188 325.234 275.41H327.234ZM328.533 270.373C329.424 268.88 330.608 267.725 332.093 266.892L331.115 265.148C329.32 266.155 327.884 267.56 326.816 269.347L328.533 270.373ZM332.089 266.895C333.594 266.06 335.246 265.64 337.064 265.64V263.64C334.922 263.64 332.934 264.14 331.119 265.145L332.089 266.895ZM337.064 265.64C338.882 265.64 340.522 266.06 342.005 266.892L342.983 265.148C341.186 264.14 339.206 263.64 337.064 263.64V265.64ZM342.009 266.895C343.51 267.727 344.678 268.876 345.527 270.357L347.262 269.363C346.231 267.564 344.798 266.153 342.979 265.145L342.009 266.895ZM345.531 270.365C346.394 271.839 346.834 273.512 346.834 275.41H348.834C348.834 273.188 348.314 271.161 347.257 269.355L345.531 270.365ZM346.834 275.41C346.834 277.308 346.394 278.993 345.528 280.489L347.26 281.491C348.314 279.667 348.834 277.632 348.834 275.41H346.834ZM345.531 280.485C344.66 281.973 343.488 283.126 342.005 283.958L342.983 285.702C344.78 284.694 346.208 283.287 347.257 281.495L345.531 280.485ZM342.005 283.958C340.522 284.79 338.882 285.21 337.064 285.21V287.21C339.206 287.21 341.186 286.71 342.983 285.702L342.005 283.958ZM337.064 282.53C338.991 282.53 340.617 281.875 341.83 280.516L340.338 279.184C339.552 280.065 338.497 280.53 337.064 280.53V282.53ZM341.823 280.523C343.046 279.181 343.614 277.443 343.614 275.41H341.614C341.614 277.057 341.163 278.279 340.345 279.177L341.823 280.523ZM343.614 275.41C343.614 273.361 343.048 271.617 341.817 270.29L340.351 271.65C341.161 272.523 341.614 273.739 341.614 275.41H343.614ZM341.83 270.304C340.617 268.945 338.991 268.29 337.064 268.29V270.29C338.497 270.29 339.552 270.755 340.338 271.636L341.83 270.304ZM337.064 268.29C335.127 268.29 333.486 268.928 332.251 270.26L333.717 271.62C334.522 270.752 335.602 270.29 337.064 270.29V268.29ZM332.244 270.267C331.036 271.596 330.484 273.35 330.484 275.41H332.484C332.484 273.71 332.932 272.484 333.724 271.613L332.244 270.267ZM330.484 275.41C330.484 277.455 331.038 279.202 332.238 280.546L333.73 279.214C332.93 278.318 332.484 277.085 332.484 275.41H330.484ZM332.251 280.56C333.486 281.892 335.127 282.53 337.064 282.53V280.53C335.602 280.53 334.522 280.068 333.717 279.2L332.251 280.56ZM364.398 266.26L364.867 265.376L364.398 266.26ZM368.238 269.98L367.367 270.47L367.37 270.477L367.374 270.483L368.238 269.98ZM368.238 280.96L367.371 280.462L367.367 280.47L368.238 280.96ZM364.368 284.68L363.904 283.794L363.9 283.796L364.368 284.68ZM350.688 286H349.688V287H350.688V286ZM350.688 264.94V263.94H349.688V264.94H350.688ZM355.818 269.32V268.32H354.818V269.32H355.818ZM355.818 281.56H354.818V282.56H355.818V281.56ZM358.578 265.94C360.664 265.94 362.438 266.353 363.93 267.144L364.867 265.376C363.038 264.407 360.932 263.94 358.578 263.94V265.94ZM363.93 267.144C365.425 267.936 366.563 269.041 367.367 270.47L369.11 269.49C368.113 267.719 366.692 266.344 364.867 265.376L363.93 267.144ZM367.374 270.483C368.193 271.89 368.618 273.542 368.618 275.47H370.618C370.618 273.238 370.123 271.23 369.102 269.477L367.374 270.483ZM368.618 275.47C368.618 277.376 368.194 279.03 367.371 280.462L369.105 281.458C370.122 279.69 370.618 277.684 370.618 275.47H368.618ZM367.367 280.47C366.565 281.895 365.419 283.001 363.904 283.794L364.832 285.566C366.677 284.599 368.112 283.225 369.11 281.45L367.367 280.47ZM363.9 283.796C362.407 284.588 360.643 285 358.578 285V287C360.913 287 363.009 286.532 364.837 285.564L363.9 283.796ZM358.578 285H350.688V287H358.578V285ZM351.688 286V264.94H349.688V286H351.688ZM350.688 265.94H358.578V263.94H350.688V265.94ZM358.248 282.56C360.373 282.56 362.163 281.975 363.479 280.684L362.078 279.256C361.233 280.085 360.003 280.56 358.248 280.56V282.56ZM363.479 280.684C364.8 279.386 365.398 277.599 365.398 275.47H363.398C363.398 277.221 362.916 278.434 362.078 279.256L363.479 280.684ZM365.398 275.47C365.398 273.34 364.8 271.548 363.485 270.233L362.071 271.647C362.916 272.492 363.398 273.72 363.398 275.47H365.398ZM363.485 270.233C362.17 268.918 360.378 268.32 358.248 268.32V270.32C359.998 270.32 361.226 270.802 362.071 271.647L363.485 270.233ZM358.248 268.32H355.818V270.32H358.248V268.32ZM354.818 269.32V281.56H356.818V269.32H354.818ZM355.818 282.56H358.248V280.56H355.818V282.56ZM377.615 269.05V268.05H376.615V269.05H377.615ZM377.615 273.31H376.615V274.31H377.615V273.31ZM384.485 273.31H385.485V272.31H384.485V273.31ZM384.485 277.27V278.27H385.485V277.27H384.485ZM377.615 277.27V276.27H376.615V277.27H377.615ZM377.615 281.89H376.615V282.89H377.615V281.89ZM385.385 281.89H386.385V280.89H385.385V281.89ZM385.385 286V287H386.385V286H385.385ZM372.485 286H371.485V287H372.485V286ZM372.485 264.94V263.94H371.485V264.94H372.485ZM385.385 264.94H386.385V263.94H385.385V264.94ZM385.385 269.05V270.05H386.385V269.05H385.385ZM376.615 269.05V273.31H378.615V269.05H376.615ZM377.615 274.31H384.485V272.31H377.615V274.31ZM383.485 273.31V277.27H385.485V273.31H383.485ZM384.485 276.27H377.615V278.27H384.485V276.27ZM376.615 277.27V281.89H378.615V277.27H376.615ZM377.615 282.89H385.385V280.89H377.615V282.89ZM384.385 281.89V286H386.385V281.89H384.385ZM385.385 285H372.485V287H385.385V285ZM373.485 286V264.94H371.485V286H373.485ZM372.485 265.94H385.385V263.94H372.485V265.94ZM384.385 264.94V269.05H386.385V264.94H384.385ZM385.385 268.05H377.615V270.05H385.385V268.05ZM392.195 285.46L391.816 286.385L392.195 285.46ZM389.255 283.24L388.45 283.832L388.457 283.843L389.255 283.24ZM388.115 279.7V278.7H387.086L387.116 279.729L388.115 279.7ZM393.575 279.7L394.57 279.598L394.478 278.7H393.575V279.7ZM394.385 281.5L393.711 282.238L393.72 282.247L393.729 282.255L394.385 281.5ZM397.985 281.59L398.597 282.381L398.608 282.373L398.619 282.364L397.985 281.59ZM398.105 278.83L397.398 279.537L397.408 279.547L397.419 279.557L398.105 278.83ZM396.815 277.99L396.413 278.905L396.419 278.908L396.426 278.911L396.815 277.99ZM394.655 277.24L394.36 278.196L394.37 278.198L394.655 277.24ZM389.105 274.12L389.903 273.517L389.105 274.12ZM390.305 266.32L390.918 267.111L390.925 267.105L390.305 266.32ZM401.465 266.32L400.846 267.105L400.853 267.111L401.465 266.32ZM403.745 270.94V271.94H404.797L404.744 270.89L403.745 270.94ZM398.195 270.94L397.197 270.999L397.253 271.94H398.195V270.94ZM397.445 269.35L396.789 270.105L396.799 270.113L396.809 270.121L397.445 269.35ZM394.175 269.26L394.82 270.025L394.831 270.015L394.842 270.005L394.175 269.26ZM394.565 272.26L395.076 271.4L394.565 272.26ZM397.565 273.49L397.886 272.543L397.873 272.539L397.565 273.49ZM400.865 274.81L400.418 275.704L400.427 275.709L400.865 274.81ZM403.085 276.64L402.295 277.253L403.085 276.64ZM403.085 283L402.24 282.465L402.236 282.472L402.233 282.478L403.085 283ZM400.445 285.34L399.998 284.446L400.445 285.34ZM396.335 285.21C394.904 285.21 393.656 284.978 392.575 284.535L391.816 286.385C393.175 286.942 394.687 287.21 396.335 287.21V285.21ZM392.575 284.535C391.508 284.098 390.677 283.464 390.053 282.637L388.457 283.843C389.314 284.976 390.443 285.822 391.816 286.385L392.575 284.535ZM390.061 282.648C389.477 281.853 389.15 280.876 389.115 279.671L387.116 279.729C387.161 281.284 387.594 282.667 388.45 283.832L390.061 282.648ZM388.115 280.7H393.575V278.7H388.115V280.7ZM392.581 279.802C392.679 280.761 393.026 281.613 393.711 282.238L395.06 280.762C394.824 280.547 394.632 280.199 394.57 279.598L392.581 279.802ZM393.729 282.255C394.408 282.845 395.258 283.1 396.185 283.1V281.1C395.633 281.1 395.283 280.955 395.042 280.745L393.729 282.255ZM396.185 283.1C397.087 283.1 397.927 282.899 398.597 282.381L397.374 280.799C397.163 280.961 396.804 281.1 396.185 281.1V283.1ZM398.619 282.364C399.314 281.795 399.645 281.009 399.645 280.12H397.645C397.645 280.471 397.537 280.665 397.352 280.816L398.619 282.364ZM399.645 280.12C399.645 279.34 399.363 278.642 398.792 278.103L397.419 279.557C397.568 279.698 397.645 279.86 397.645 280.12H399.645ZM398.813 278.123C398.367 277.677 397.823 277.331 397.205 277.069L396.426 278.911C396.848 279.089 397.164 279.303 397.398 279.537L398.813 278.123ZM397.218 277.075C396.661 276.83 395.895 276.566 394.941 276.282L394.37 278.198C395.296 278.474 395.97 278.71 396.413 278.905L397.218 277.075ZM394.951 276.285C393.619 275.873 392.561 275.471 391.764 275.081L390.887 276.879C391.809 277.329 392.972 277.767 394.36 278.195L394.951 276.285ZM391.764 275.081C391.056 274.735 390.436 274.221 389.903 273.517L388.308 274.723C389.015 275.659 389.875 276.385 390.887 276.879L391.764 275.081ZM389.903 273.517C389.448 272.914 389.175 272.075 389.175 270.91H387.175C387.175 272.385 387.523 273.686 388.308 274.723L389.903 273.517ZM389.175 270.91C389.175 269.227 389.767 268.002 390.918 267.111L389.693 265.529C388.004 266.838 387.175 268.673 387.175 270.91H389.175ZM390.925 267.105C392.127 266.157 393.741 265.64 395.855 265.64V263.64C393.41 263.64 391.324 264.243 389.686 265.535L390.925 267.105ZM395.855 265.64C398.015 265.64 399.647 266.16 400.846 267.105L402.085 265.535C400.444 264.24 398.336 263.64 395.855 263.64V265.64ZM400.853 267.111C402.017 268.012 402.66 269.268 402.747 270.99L404.744 270.89C404.631 268.652 403.754 266.828 402.078 265.529L400.853 267.111ZM403.745 269.94H398.195V271.94H403.745V269.94ZM399.194 270.881C399.14 269.967 398.788 269.162 398.082 268.579L396.809 270.121C397.023 270.298 397.171 270.553 397.197 270.999L399.194 270.881ZM398.102 268.595C397.428 268.009 396.591 267.75 395.675 267.75V269.75C396.2 269.75 396.543 269.891 396.789 270.105L398.102 268.595ZM395.675 267.75C394.865 267.75 394.11 267.977 393.509 268.515L394.842 270.005C395.001 269.863 395.246 269.75 395.675 269.75V267.75ZM393.531 268.495C392.871 269.051 392.605 269.835 392.605 270.67H394.605C394.605 270.265 394.72 270.109 394.82 270.025L393.531 268.495ZM392.605 270.67C392.605 271.741 393.146 272.58 394.055 273.12L395.076 271.4C394.705 271.18 394.605 270.959 394.605 270.67H392.605ZM394.055 273.12C394.793 273.558 395.879 273.995 397.258 274.441L397.873 272.539C396.532 272.105 395.618 271.722 395.076 271.4L394.055 273.12ZM397.245 274.437C398.582 274.889 399.635 275.313 400.418 275.704L401.313 273.916C400.416 273.467 399.269 273.011 397.886 272.543L397.245 274.437ZM400.427 275.709C401.141 276.058 401.763 276.566 402.295 277.253L403.876 276.027C403.168 275.114 402.31 274.402 401.304 273.911L400.427 275.709ZM402.295 277.253C402.749 277.838 403.015 278.636 403.015 279.73H405.015C405.015 278.304 404.662 277.042 403.876 276.027L402.295 277.253ZM403.015 279.73C403.015 280.748 402.756 281.651 402.24 282.465L403.931 283.535C404.655 282.389 405.015 281.112 405.015 279.73H403.015ZM402.233 282.478C401.742 283.278 401.013 283.938 399.998 284.446L400.893 286.234C402.198 285.582 403.228 284.682 403.938 283.522L402.233 282.478ZM399.998 284.446C399.004 284.943 397.794 285.21 396.335 285.21V287.21C398.037 287.21 399.567 286.897 400.893 286.234L399.998 284.446Z" fill="black"/>
</g>
<defs>
<filter id="filter0_d_231_578" x="107.86" y="264.64" width="300.156" height="29.57" filterUnits="userSpaceOnUse" color-interpolation-filters="sRGB">
<feFlood flood-opacity="0" result="BackgroundImageFix"/>
<feColorMatrix in="SourceAlpha" type="matrix" values="0 0 0 0 0 0 0 0 0 0 0 0 0 0 0 0 0 0 127 0" result="hardAlpha"/>
<feOffset dy="4"/>
<feGaussianBlur stdDeviation="2"/>
<feComposite in2="hardAlpha" operator="out"/>
<feColorMatrix type="matrix" values="0 0 0 0 0 0 0 0 0 0 0 0 0 0 0 0 0 0 0.25 0"/>
<feBlend mode="normal" in2="BackgroundImageFix" result="effect1_dropShadow_231_578"/>
<feBlend mode="normal" in="SourceGraphic" in2="effect1_dropShadow_231_578" result="shape"/>
</filter>
</defs>
</svg>
