<svg id="visual" viewBox="0 0 1000 900" width="1000" height="900" xmlns="http://www.w3.org/2000/svg" xmlns:xlink="http://www.w3.org/1999/xlink" version="1.1"><path d="M0 615L11.2 627.5C22.3 640 44.7 665 66.8 660.8C89 656.7 111 623.3 133.2 618.3C155.3 613.3 177.7 636.7 200 653C222.3 669.3 244.7 678.7 266.8 678.8C289 679 311 670 333.2 657.2C355.3 644.3 377.7 627.7 400 628.8C422.3 630 444.7 649 466.8 665.2C489 681.3 511 694.7 533.2 684.2C555.3 673.7 577.7 639.3 600 628.2C622.3 617 644.7 629 666.8 644.7C689 660.3 711 679.7 733.2 686C755.3 692.3 777.7 685.7 800 677.3C822.3 669 844.7 659 866.8 647.5C889 636 911 623 933.2 607.8C955.3 592.7 977.7 575.3 988.8 566.7L1000 558L1000 901L988.8 901C977.7 901 955.3 901 933.2 901C911 901 889 901 866.8 901C844.7 901 822.3 901 800 901C777.7 901 755.3 901 733.2 901C711 901 689 901 666.8 901C644.7 901 622.3 901 600 901C577.7 901 555.3 901 533.2 901C511 901 489 901 466.8 901C444.7 901 422.3 901 400 901C377.7 901 355.3 901 333.2 901C311 901 289 901 266.8 901C244.7 901 222.3 901 200 901C177.7 901 155.3 901 133.2 901C111 901 89 901 66.8 901C44.7 901 22.3 901 11.2 901L0 901Z" fill="#E06309" stroke-linecap="round" stroke-linejoin="miter"></path></svg>